PathFileType	4	(X/Y/Z)	Walk1.trc
DataRate	CameraRate	NumFrames	NumMarkers	Units	OrigDataRate	OrigDataStartFrame	OrigNumFrames
200.000000	200.000000	9	59	mm	200.000000	348	593
Frame#	Times		CLAV		STRN		LASI		RASI		RACR1		RFA1		RWRU		LACR1		LUA1		LFA1		LCAR		RTH2		LTH3		LTH2		LLFC		LTB3		LTB4		LToe		LTB1		RUA1		RElbow		RTH4		LTH4		LMMAL		LMT1		LTB2		LMT5		LTH1		RTH1		RCAR		LLMAL		RBack		C7		RFHD		RTH3		LFHD		RPSI		RWRR		T10		LPSI		RBHD		RLFC		LElbow		RTB1		LWRU		RElbowM		RTB4		RTB2		RToe		LBHD		LWRR		RTB3		RMT1		LElbowM		RCAL		RMT5		RLMAL		RMMAL		LCAL
			X1	Y1	Z1	X2	Y2	Z2	X3	Y3	Z3	X4	Y4	Z4	X5	Y5	Z5	X6	Y6	Z6	X7	Y7	Z7	X8	Y8	Z8	X9	Y9	Z9	X10	Y10	Z10	X11	Y11	Z11	X12	Y12	Z12	X13	Y13	Z13	X14	Y14	Z14	X15	Y15	Z15	X16	Y16	Z16	X17	Y17	Z17	X18	Y18	Z18	X19	Y19	Z19	X20	Y20	Z20	X21	Y21	Z21	X22	Y22	Z22	X23	Y23	Z23	X24	Y24	Z24	X25	Y25	Z25	X26	Y26	Z26	X27	Y27	Z27	X28	Y28	Z28	X29	Y29	Z29	X30	Y30	Z30	X31	Y31	Z31	X32	Y32	Z32	X33	Y33	Z33	X34	Y34	Z34	X35	Y35	Z35	X36	Y36	Z36	X37	Y37	Z37	X38	Y38	Z38	X39	Y39	Z39	X40	Y40	Z40	X41	Y41	Z41	X42	Y42	Z42	X43	Y43	Z43	X44	Y44	Z44	X45	Y45	Z45	X46	Y46	Z46	X47	Y47	Z47	X48	Y48	Z48	X49	Y49	Z49	X50	Y50	Z50	X51	Y51	Z51	X52	Y52	Z52	X53	Y53	Z53	X54	Y54	Z54	X55	Y55	Z55	X56	Y56	Z56	X57	Y57	Z57	X58	Y58	Z58	X59	Y59	Z59

348	1.74	-311.13	1343.2	-33.725	-237.29	1120.9	-30.771	-294.32	937.49	-151.14	-285.07	956.17	115.48	-362.73	1356.5	140.8	-412.89	903.23	242.14	-457.35	799.4	259.09	-373.47	1362.9	-200.91	-370.69	1156.4	-256.33	-282.17	931.96	-265.27	-215.67	789.5	-255.5	-241.95	707.77	130.17	-394.24	549.31	-131.22	-326.33	641.82	-128.93	-404.45	440.92	-115.38	-470.79	165.45	-30.118	-434.67	250.43	-35.054	-348.99	28.776	-67.76	-401.75	340.19	-32.644	-415.28	1150.7	201.96	-454.31	1049.6	223.07	-302.49	673.82	153.68	-399.99	635.13	-150.47	-522.78	75.954	4.5969	-396.27	38.713	-37.913	-452.32	256.9	-104.92	-436.21	22.717	-115.92	-402.12	730.66	-173.34	-338.96	759.84	172.74	-417.09	752.92	260.62	-539.88	66.199	-76.969	-482.08	1320.6	67.011	-433.31	1425	-26.966	-240.69	1570.2	22.028	-266.7	588.37	134.1	-243.97	1571.9	-51.004	-501.82	983.24	53.036	-402.94	795.18	209.65	-473.22	1139.6	-24.716	-505.89	979.06	-60.664	-416.81	1558.5	48.615	-244.36	493.84	121.08	-367.85	1036.2	-273.83	-205.81	371.81	55.912	-273.38	810.92	-274.12	-462.89	1028.2	139.96	-220.96	280.37	53.954	-245.17	286.53	120.36	-102.91	53.728	119.28	-414.8	1571.6	-77.848	-237.1	828.84	-214.69	-235.1	189.91	51.723	-131.98	60.035	81.169	-400.31	1017.3	-213.62	-325.55	50.95	37.248	-186.81	32.623	138.15	-291.06	85.602	93.389	-255.75	102.68	20.385	-592.84	37.283	-22.509
349	1.745	-305.85	1342.4	-33.55	-231.97	1120.1	-30.819	-289.49	936.46	-151.08	-279.61	955.07	115.58	-357.3	1355.6	141.05	-409.17	902.5	242.58	-454.14	798.86	259.48	-368.38	1362.4	-200.65	-364.95	1156	-256.4	-274.14	932.49	-265.64	-205.88	790.91	-255.72	-236.96	706.77	130.06	-390.47	548.48	-131.04	-322.24	640.78	-128.76	-401.22	440.1	-115.2	-469.81	165.16	-29.995	-432.96	249.82	-34.91	-348.91	28.667	-67.913	-399.28	339.32	-32.475	-410.51	1149.9	202.15	-449.92	1049	223.21	-297.3	672.97	154.23	-395.93	634.28	-150.28	-522.43	76.133	4.6838	-396.22	38.692	-37.895	-450.49	256.43	-104.79	-436.21	22.723	-115.89	-397.77	729.86	-173.1	-333.58	759.11	173.17	-414.16	752.16	261.13	-539.64	66.46	-76.912	-476.72	1319.8	67.282	-428.05	1424.2	-26.608	-235.36	1569.2	22.51	-261.76	587.43	134.59	-238.66	1571.1	-50.524	-496.35	982.51	53.446	-399.65	794.33	210.19	-467.92	1138.8	-24.421	-500.72	978.33	-60.211	-411.5	1557.7	49.1	-239.27	492.45	121.83	-361.02	1035.9	-274.02	-197.61	371.45	56.395	-263.97	811.53	-274.04	-458.23	1027.5	140.1	-209.75	279.59	54.465	-234.06	284.95	120.87	-84.139	56.171	119.24	-409.49	1570.9	-77.345	-227.53	830.14	-214.95	-220.93	188.72	52.207	-113.56	61.783	81.249	-393.14	1016.6	-213.72	-306.93	47.057	37.695	-167.43	32.69	138.41	-273.4	82.618	93.858	-238.79	100.91	20.825	-592.74	37.777	-22.365
350	1.75	-300.54	1341.6	-33.352	-226.64	1119.2	-30.845	-284.68	935.42	-151.06	-274.14	953.93	115.72	-351.85	1354.6	141.33	-405.37	901.74	243.04	-450.83	798.29	259.9	-363.26	1361.8	-200.37	-359.2	1155.5	-256.43	-266.16	932.99	-265.96	-196.19	792.29	-255.95	-232.05	705.6	129.99	-386.67	547.63	-130.88	-318.14	639.73	-128.6	-397.98	439.28	-115.02	-468.81	164.88	-29.878	-431.23	249.22	-34.779	-348.83	28.56	-68.064	-396.79	338.44	-32.323	-405.69	1149.2	202.37	-445.47	1048.3	223.39	-292.21	672.03	154.82	-391.85	633.43	-150.11	-522.06	76.334	4.7718	-396.16	38.673	-37.879	-448.67	255.97	-104.66	-436.22	22.731	-115.86	-393.43	729.05	-172.86	-328.25	758.3	173.61	-411.12	751.38	261.65	-539.4	66.738	-76.848	-471.34	1319	67.574	-422.77	1423.4	-26.23	-230.05	1568.3	23.017	-256.99	586.35	135.16	-233.36	1570.2	-50.019	-490.84	981.76	53.876	-396.26	793.46	210.74	-462.59	1138	-24.101	-495.53	977.58	-59.734	-406.19	1556.8	49.611	-234.3	490.99	122.62	-354.19	1035.5	-274.16	-189.54	371.12	56.898	-254.62	812.13	-273.96	-453.55	1026.8	140.27	-198.68	278.91	54.996	-223.07	283.48	121.41	-65.618	58.905	119.1	-404.18	1570.2	-76.818	-218.03	831.42	-215.21	-206.91	187.72	52.707	-95.384	63.796	81.265	-385.96	1015.9	-213.76	-288.39	43.505	38.149	-148.25	33.05	138.61	-255.86	79.941	94.333	-221.99	99.419	21.279	-592.62	38.302	-22.209
351	1.755	-295.22	1340.8	-33.129	-221.29	1118.2	-30.85	-279.88	934.38	-151.07	-268.63	952.76	115.91	-346.37	1353.7	141.63	-401.48	900.97	243.5	-447.41	797.7	260.33	-358.12	1361.2	-200.07	-353.43	1155.1	-256.41	-258.2	933.48	-266.25	-186.6	793.63	-256.18	-227.22	704.27	129.95	-382.86	546.77	-130.73	-314.02	638.67	-128.47	-394.72	438.44	-114.86	-467.79	164.61	-29.764	-429.49	248.61	-34.661	-348.73	28.456	-68.213	-394.28	337.56	-32.187	-400.83	1148.4	202.61	-440.97	1047.7	223.59	-287.22	670.98	155.46	-387.75	632.58	-149.96	-521.68	76.557	4.863	-396.09	38.655	-37.865	-446.84	255.51	-104.54	-436.24	22.738	-115.82	-389.07	728.24	-172.63	-322.96	757.42	174.03	-407.97	750.58	262.18	-539.15	67.035	-76.778	-465.94	1318.1	67.89	-417.47	1422.6	-25.829	-224.73	1567.4	23.546	-252.38	585.13	135.82	-228.05	1569.4	-49.491	-485.31	980.97	54.328	-392.78	792.59	211.3	-457.25	1137.2	-23.754	-490.32	976.8	-59.232	-400.88	1555.9	50.148	-229.4	489.47	123.43	-347.37	1035.1	-274.24	-181.6	370.8	57.418	-245.35	812.72	-273.87	-448.84	1026.1	140.48	-187.76	278.35	55.541	-212.23	282.13	121.95	-47.405	61.919	118.91	-398.89	1569.4	-76.265	-208.61	832.67	-215.48	-193.07	186.92	53.219	-77.501	66.058	81.232	-378.79	1015.2	-213.74	-270.01	40.293	38.614	-129.31	33.7	138.76	-238.48	77.576	94.817	-205.4	98.198	21.746	-592.5	38.86	-22.041
352	1.76	-289.87	1339.9	-32.879	-215.92	1117.2	-30.834	-275.09	933.35	-151.1	-263.09	951.55	116.15	-340.87	1352.7	141.96	-397.52	900.18	243.98	-443.89	797.08	260.77	-352.96	1360.6	-199.74	-347.65	1154.5	-256.34	-250.29	933.95	-266.5	-177.1	794.95	-256.43	-222.46	702.78	129.94	-379.03	545.91	-130.6	-309.88	637.6	-128.35	-391.46	437.6	-114.72	-466.77	164.35	-29.654	-427.74	248.01	-34.555	-348.63	28.355	-68.359	-391.75	336.67	-32.066	-395.92	1147.6	202.88	-436.41	1047	223.82	-282.33	669.83	156.14	-383.64	631.74	-149.82	-521.29	76.804	4.9587	-396.02	38.64	-37.853	-445.01	255.06	-104.43	-436.26	22.747	-115.77	-384.7	727.42	-172.41	-317.71	756.46	174.45	-404.7	749.77	262.72	-538.9	67.354	-76.7	-460.52	1317.2	68.231	-412.16	1421.7	-25.404	-219.42	1566.4	24.099	-247.93	583.79	136.57	-222.75	1568.6	-48.94	-479.74	980.14	54.803	-389.19	791.7	211.86	-451.89	1136.3	-23.381	-485.09	976	-58.703	-395.57	1555	50.711	-224.57	487.89	124.27	-340.56	1034.6	-274.28	-173.78	370.51	57.948	-236.16	813.3	-273.78	-444.11	1025.4	140.71	-177.01	277.89	56.098	-201.54	280.91	122.51	-29.555	65.192	118.66	-393.59	1568.7	-75.687	-199.26	833.89	-215.74	-179.43	186.31	53.743	-59.96	68.549	81.168	-371.61	1014.5	-213.66	-251.83	37.417	39.092	-110.67	34.629	138.88	-221.31	75.524	95.312	-189.06	97.243	22.225	-592.36	39.452	-21.86
353	1.765	-284.5	1339.1	-32.602	-210.53	1116.2	-30.794	-270.31	932.32	-151.16	-257.51	950.32	116.42	-335.35	1351.7	142.33	-393.48	899.37	244.47	-440.26	796.45	261.24	-347.78	1359.9	-199.38	-341.85	1154	-256.22	-242.42	934.39	-266.7	-167.7	796.23	-256.68	-217.77	701.14	129.98	-375.18	545.04	-130.48	-305.73	636.53	-128.24	-388.18	436.75	-114.58	-465.73	164.09	-29.546	-425.97	247.41	-34.459	-348.53	28.259	-68.501	-389.21	335.78	-31.959	-390.96	1146.7	203.17	-431.79	1046.3	224.08	-277.53	668.58	156.87	-379.5	630.9	-149.7	-520.89	77.077	5.0594	-395.95	38.626	-37.844	-443.18	254.62	-104.32	-436.28	22.755	-115.72	-380.31	726.6	-172.2	-312.49	755.45	174.86	-401.32	748.94	263.26	-538.63	67.696	-76.615	-455.08	1316.3	68.6	-406.82	1420.9	-24.952	-214.11	1565.5	24.675	-243.64	582.32	137.43	-217.45	1567.7	-48.365	-474.13	979.29	55.303	-385.51	790.79	212.43	-446.51	1135.4	-22.98	-479.83	975.18	-58.146	-390.25	1554	51.299	-219.79	486.26	125.13	-333.75	1034.2	-274.27	-166.07	370.25	58.482	-227.04	813.87	-273.69	-439.35	1024.6	140.97	-166.44	277.54	56.661	-191.01	279.81	123.07	-12.123	68.691	118.38	-388.3	1567.9	-75.083	-190	835.07	-215.99	-166.03	185.88	54.277	-42.814	71.24	81.089	-364.44	1013.7	-213.53	-233.93	34.869	39.587	-92.394	35.821	138.97	-204.42	73.781	95.82	-173.02	96.541	22.718	-592.22	40.08	-21.667
354	1.77	-279.1	1338.2	-32.295	-205.13	1115.2	-30.731	-265.53	931.3	-151.25	-251.88	949.08	116.72	-329.8	1350.7	142.72	-389.35	898.54	244.96	-436.54	795.79	261.72	-342.57	1359.2	-199	-336.03	1153.4	-256.06	-234.59	934.81	-266.87	-158.41	797.47	-256.94	-213.15	699.35	130.07	-371.31	544.18	-130.37	-301.54	635.45	-128.14	-384.9	435.91	-114.45	-464.68	163.85	-29.439	-424.19	246.81	-34.374	-348.42	28.169	-68.639	-386.65	334.88	-31.866	-385.96	1145.9	203.49	-427.11	1045.5	224.37	-272.82	667.25	157.64	-375.35	630.07	-149.6	-520.47	77.376	5.1645	-395.87	38.615	-37.837	-441.35	254.2	-104.22	-436.31	22.762	-115.66	-375.9	725.78	-171.98	-307.32	754.37	175.27	-397.83	748.11	263.81	-538.36	68.066	-76.526	-449.61	1315.4	68.999	-401.46	1420	-24.472	-208.8	1564.6	25.272	-239.48	580.73	138.38	-212.15	1566.9	-47.767	-468.5	978.4	55.829	-381.74	789.88	213.01	-441.11	1134.5	-22.551	-474.54	974.34	-57.56	-384.94	1553	51.913	-215.01	484.62	126.01	-326.96	1033.7	-274.2	-158.48	370	59.013	-218.01	814.43	-273.59	-434.57	1023.9	141.26	-156.06	277.28	57.225	-180.65	278.84	123.63	4.8378	72.377	118.1	-383.01	1567.1	-74.454	-180.83	836.22	-216.25	-152.9	185.62	54.819	-26.111	74.096	81.011	-357.28	1013	-213.33	-216.36	32.638	40.107	-74.55	37.254	139.05	-187.86	72.336	96.346	-157.32	96.074	23.224	-592.06	40.747	-21.466
355	1.775	-273.68	1337.4	-31.957	-199.7	1114.2	-30.642	-260.76	930.3	-151.35	-246.21	947.83	117.05	-324.22	1349.7	143.15	-385.15	897.69	245.46	-432.7	795.12	262.22	-337.34	1358.5	-198.59	-330.19	1152.9	-255.84	-226.8	935.21	-267	-149.22	798.67	-257.2	-208.58	697.45	130.21	-367.42	543.31	-130.27	-297.34	634.36	-128.06	-381.6	435.06	-114.33	-463.62	163.63	-29.336	-422.4	246.23	-34.299	-348.3	28.085	-68.773	-384.08	333.99	-31.786	-380.9	1145	203.84	-422.36	1044.8	224.69	-268.18	665.84	158.47	-371.17	629.26	-149.51	-520.04	77.705	5.2723	-395.79	38.607	-37.833	-439.53	253.79	-104.13	-436.34	22.769	-115.59	-371.46	724.97	-171.77	-302.17	753.23	175.67	-394.22	747.26	264.36	-538.08	68.465	-76.434	-444.12	1314.4	69.43	-396.09	1419.1	-23.962	-203.49	1563.6	25.892	-235.43	579.05	139.43	-206.86	1566.1	-47.146	-462.82	977.48	56.384	-377.87	788.96	213.58	-435.68	1133.6	-22.092	-469.21	973.48	-56.942	-379.62	1552	52.553	-210.23	482.96	126.88	-320.19	1033.2	-274.09	-150.99	369.77	59.536	-209.06	814.97	-273.49	-429.75	1023.1	141.58	-145.89	277.11	57.785	-170.48	277.99	124.2	21.276	76.198	117.82	-377.72	1566.2	-73.8	-171.75	837.33	-216.49	-140.08	185.52	55.365	-9.9018	77.077	80.947	-350.13	1012.2	-213.09	-199.2	30.707	40.657	-57.196	38.9	139.14	-171.69	71.172	96.891	-142.02	95.819	23.744	-591.89	41.456	-21.259
356	1.78	-268.25	1336.5	-31.585	-194.26	1113.2	-30.526	-256	929.32	-151.47	-240.49	946.58	117.4	-318.63	1348.7	143.61	-380.86	896.83	245.97	-428.77	794.42	262.72	-332.09	1357.8	-198.14	-324.33	1152.3	-255.58	-219.06	935.57	-267.08	-140.13	799.84	-257.46	-204.05	695.43	130.4	-363.5	542.46	-130.19	-293.1	633.28	-127.97	-378.28	434.22	-114.21	-462.55	163.44	-29.237	-420.6	245.65	-34.233	-348.18	28.008	-68.901	-381.49	333.11	-31.718	-375.79	1144.1	204.22	-417.54	1044	225.04	-263.6	664.37	159.34	-366.96	628.46	-149.44	-519.59	78.066	5.3801	-395.71	38.602	-37.833	-437.7	253.39	-104.04	-436.37	22.773	-115.52	-367	724.16	-171.55	-297.06	752.05	176.06	-390.49	746.4	264.93	-537.79	68.897	-76.343	-438.61	1313.5	69.897	-390.69	1418.2	-23.42	-198.17	1562.7	26.533	-231.48	577.27	140.56	-201.56	1565.2	-46.504	-457.12	976.54	56.969	-373.9	788.03	214.16	-430.23	1132.7	-21.604	-463.86	972.6	-56.292	-374.3	1551	53.218	-205.42	481.31	127.76	-313.42	1032.7	-273.94	-143.61	369.56	60.042	-200.19	815.49	-273.38	-424.9	1022.3	141.93	-135.94	277.01	58.337	-160.49	277.26	124.77	37.146	80.097	117.56	-372.43	1565.4	-73.12	-162.76	838.4	-216.73	-127.58	185.54	55.914	5.7688	80.135	80.907	-342.99	1011.5	-212.78	-182.5	29.055	41.244	-40.391	40.719	139.24	-155.96	70.267	97.46	-127.16	95.747	24.277	-591.71	42.21	-21.052
